G04 #@! TF.GenerationSoftware,KiCad,Pcbnew,(5.1.4-0-10_14)*
G04 #@! TF.CreationDate,2021-08-29T16:46:43+09:00*
G04 #@! TF.ProjectId,PC8001-SD-8kRAM,50433830-3031-42d5-9344-2d386b52414d,rev?*
G04 #@! TF.SameCoordinates,Original*
G04 #@! TF.FileFunction,Legend,Bot*
G04 #@! TF.FilePolarity,Positive*
%FSLAX46Y46*%
G04 Gerber Fmt 4.6, Leading zero omitted, Abs format (unit mm)*
G04 Created by KiCad (PCBNEW (5.1.4-0-10_14)) date 2021-08-29 16:46:43*
%MOMM*%
%LPD*%
G04 APERTURE LIST*
%ADD10O,1.802000X1.802000*%
%ADD11R,1.802000X1.802000*%
%ADD12O,1.702000X2.502000*%
%ADD13R,1.702000X2.502000*%
%ADD14O,1.702000X1.702000*%
%ADD15R,1.702000X1.702000*%
%ADD16C,1.702000*%
%ADD17O,2.502000X1.702000*%
%ADD18R,2.502000X1.702000*%
%ADD19R,1.602000X1.602000*%
%ADD20C,1.602000*%
%ADD21C,3.302000*%
%ADD22C,1.902000*%
%ADD23R,1.902000X1.902000*%
%ADD24O,1.602000X1.602000*%
%ADD25R,3.102000X3.102000*%
%ADD26C,3.102000*%
G04 APERTURE END LIST*
%LPC*%
D10*
X194300000Y-136280000D03*
X196840000Y-136280000D03*
X194300000Y-156600000D03*
X196840000Y-156600000D03*
X168900000Y-156600000D03*
X168900000Y-154060000D03*
X168900000Y-151520000D03*
X168900000Y-148980000D03*
X168900000Y-146440000D03*
X168900000Y-143900000D03*
X168900000Y-141360000D03*
X168900000Y-138820000D03*
D11*
X168900000Y-136280000D03*
D12*
X120500000Y-106630000D03*
X135740000Y-114250000D03*
X123040000Y-106630000D03*
X133200000Y-114250000D03*
X125580000Y-106630000D03*
X130660000Y-114250000D03*
X128120000Y-106630000D03*
X128120000Y-114250000D03*
X130660000Y-106630000D03*
X125580000Y-114250000D03*
X133200000Y-106630000D03*
X123040000Y-114250000D03*
X135740000Y-106630000D03*
D13*
X120500000Y-114250000D03*
D14*
X130910000Y-118000000D03*
X128370000Y-118000000D03*
X125830000Y-118000000D03*
X123290000Y-118000000D03*
D15*
X120750000Y-118000000D03*
D10*
X104500000Y-75040000D03*
D11*
X104500000Y-72500000D03*
D16*
X117500000Y-106250000D03*
X117500000Y-108750000D03*
D17*
X147740000Y-122500000D03*
X132500000Y-155520000D03*
X147740000Y-125040000D03*
X132500000Y-152980000D03*
X147740000Y-127580000D03*
X132500000Y-150440000D03*
X147740000Y-130120000D03*
X132500000Y-147900000D03*
X147740000Y-132660000D03*
X132500000Y-145360000D03*
X147740000Y-135200000D03*
X132500000Y-142820000D03*
X147740000Y-137740000D03*
X132500000Y-140280000D03*
X147740000Y-140280000D03*
X132500000Y-137740000D03*
X147740000Y-142820000D03*
X132500000Y-135200000D03*
X147740000Y-145360000D03*
X132500000Y-132660000D03*
X147740000Y-147900000D03*
X132500000Y-130120000D03*
X147740000Y-150440000D03*
X132500000Y-127580000D03*
X147740000Y-152980000D03*
X132500000Y-125040000D03*
X147740000Y-155520000D03*
D18*
X132500000Y-122500000D03*
D12*
X120750000Y-94130000D03*
X135990000Y-101750000D03*
X123290000Y-94130000D03*
X133450000Y-101750000D03*
X125830000Y-94130000D03*
X130910000Y-101750000D03*
X128370000Y-94130000D03*
X128370000Y-101750000D03*
X130910000Y-94130000D03*
X125830000Y-101750000D03*
X133450000Y-94130000D03*
X123290000Y-101750000D03*
X135990000Y-94130000D03*
D13*
X120750000Y-101750000D03*
D19*
X144750000Y-94000000D03*
D20*
X149830000Y-94000000D03*
X147290000Y-94000000D03*
D19*
X113250000Y-103750000D03*
D20*
X113250000Y-98670000D03*
X113250000Y-101210000D03*
D19*
X105750000Y-103750000D03*
D20*
X105750000Y-98670000D03*
X105750000Y-101210000D03*
D12*
X141750000Y-98510000D03*
X190010000Y-113750000D03*
X144290000Y-98510000D03*
X187470000Y-113750000D03*
X146830000Y-98510000D03*
X184930000Y-113750000D03*
X149370000Y-98510000D03*
X182390000Y-113750000D03*
X151910000Y-98510000D03*
X179850000Y-113750000D03*
X154450000Y-98510000D03*
X177310000Y-113750000D03*
X156990000Y-98510000D03*
X174770000Y-113750000D03*
X159530000Y-98510000D03*
X172230000Y-113750000D03*
X162070000Y-98510000D03*
X169690000Y-113750000D03*
X164610000Y-98510000D03*
X167150000Y-113750000D03*
X167150000Y-98510000D03*
X164610000Y-113750000D03*
X169690000Y-98510000D03*
X162070000Y-113750000D03*
X172230000Y-98510000D03*
X159530000Y-113750000D03*
X174770000Y-98510000D03*
X156990000Y-113750000D03*
X177310000Y-98510000D03*
X154450000Y-113750000D03*
X179850000Y-98510000D03*
X151910000Y-113750000D03*
X182390000Y-98510000D03*
X149370000Y-113750000D03*
X184930000Y-98510000D03*
X146830000Y-113750000D03*
X187470000Y-98510000D03*
X144290000Y-113750000D03*
X190010000Y-98510000D03*
D13*
X141750000Y-113750000D03*
D12*
X160750000Y-81380000D03*
X175990000Y-89000000D03*
X163290000Y-81380000D03*
X173450000Y-89000000D03*
X165830000Y-81380000D03*
X170910000Y-89000000D03*
X168370000Y-81380000D03*
X168370000Y-89000000D03*
X170910000Y-81380000D03*
X165830000Y-89000000D03*
X173450000Y-81380000D03*
X163290000Y-89000000D03*
X175990000Y-81380000D03*
D13*
X160750000Y-89000000D03*
D12*
X139500000Y-81380000D03*
X154740000Y-89000000D03*
X142040000Y-81380000D03*
X152200000Y-89000000D03*
X144580000Y-81380000D03*
X149660000Y-89000000D03*
X147120000Y-81380000D03*
X147120000Y-89000000D03*
X149660000Y-81380000D03*
X144580000Y-89000000D03*
X152200000Y-81380000D03*
X142040000Y-89000000D03*
X154740000Y-81380000D03*
D13*
X139500000Y-89000000D03*
D12*
X182000000Y-81380000D03*
X197240000Y-89000000D03*
X184540000Y-81380000D03*
X194700000Y-89000000D03*
X187080000Y-81380000D03*
X192160000Y-89000000D03*
X189620000Y-81380000D03*
X189620000Y-89000000D03*
X192160000Y-81380000D03*
X187080000Y-89000000D03*
X194700000Y-81380000D03*
X184540000Y-89000000D03*
X197240000Y-81380000D03*
D13*
X182000000Y-89000000D03*
D12*
X118000000Y-81380000D03*
X133240000Y-89000000D03*
X120540000Y-81380000D03*
X130700000Y-89000000D03*
X123080000Y-81380000D03*
X128160000Y-89000000D03*
X125620000Y-81380000D03*
X125620000Y-89000000D03*
X128160000Y-81380000D03*
X123080000Y-89000000D03*
X130700000Y-81380000D03*
X120540000Y-89000000D03*
X133240000Y-81380000D03*
D13*
X118000000Y-89000000D03*
D10*
X155440000Y-153380000D03*
X152900000Y-153380000D03*
X155440000Y-150840000D03*
X152900000Y-150840000D03*
D11*
X155440000Y-148300000D03*
D10*
X152900000Y-148300000D03*
D14*
X173410000Y-76250000D03*
X170870000Y-76250000D03*
X168330000Y-76250000D03*
X165790000Y-76250000D03*
D15*
X163250000Y-76250000D03*
D14*
X177910000Y-94000000D03*
X175370000Y-94000000D03*
X172830000Y-94000000D03*
X170290000Y-94000000D03*
D15*
X167750000Y-94000000D03*
D14*
X151900000Y-132260000D03*
D16*
X151900000Y-122100000D03*
D14*
X153340000Y-94000000D03*
D16*
X163500000Y-94000000D03*
D14*
X163000000Y-147660000D03*
D16*
X163000000Y-137500000D03*
D14*
X196910000Y-121000000D03*
D16*
X186750000Y-121000000D03*
D14*
X104090000Y-111750000D03*
D16*
X114250000Y-111750000D03*
D14*
X104090000Y-108500000D03*
D16*
X114250000Y-108500000D03*
D14*
X108750000Y-85090000D03*
D16*
X108750000Y-95250000D03*
D14*
X104500000Y-95160000D03*
D16*
X104500000Y-85000000D03*
D14*
X178410000Y-130500000D03*
D16*
X168250000Y-130500000D03*
D21*
X106500000Y-130500000D03*
X195500000Y-130500000D03*
X195500000Y-64500000D03*
X106500000Y-64500000D03*
D10*
X196750000Y-116570000D03*
X196750000Y-114030000D03*
X196750000Y-111490000D03*
X196750000Y-108950000D03*
X196750000Y-106410000D03*
X196750000Y-103870000D03*
X196750000Y-101330000D03*
X196750000Y-98790000D03*
D11*
X196750000Y-96250000D03*
D10*
X181460000Y-68460000D03*
X181460000Y-71000000D03*
X178920000Y-68460000D03*
X178920000Y-71000000D03*
X176380000Y-68460000D03*
X176380000Y-71000000D03*
X173840000Y-68460000D03*
X173840000Y-71000000D03*
X171300000Y-68460000D03*
X171300000Y-71000000D03*
X168760000Y-68460000D03*
X168760000Y-71000000D03*
X166220000Y-68460000D03*
X166220000Y-71000000D03*
X163680000Y-68460000D03*
X163680000Y-71000000D03*
X161140000Y-68460000D03*
X161140000Y-71000000D03*
X158600000Y-68460000D03*
X158600000Y-71000000D03*
X156060000Y-68460000D03*
X156060000Y-71000000D03*
X153520000Y-68460000D03*
X153520000Y-71000000D03*
X150980000Y-68460000D03*
X150980000Y-71000000D03*
X148440000Y-68460000D03*
X148440000Y-71000000D03*
X145900000Y-68460000D03*
X145900000Y-71000000D03*
X143360000Y-68460000D03*
X143360000Y-71000000D03*
X140820000Y-68460000D03*
X140820000Y-71000000D03*
X138280000Y-68460000D03*
X138280000Y-71000000D03*
X135740000Y-68460000D03*
X135740000Y-71000000D03*
X133200000Y-68460000D03*
X133200000Y-71000000D03*
X130660000Y-68460000D03*
X130660000Y-71000000D03*
X128120000Y-68460000D03*
X128120000Y-71000000D03*
X125580000Y-68460000D03*
X125580000Y-71000000D03*
X123040000Y-68460000D03*
X123040000Y-71000000D03*
X120500000Y-68460000D03*
D11*
X120500000Y-71000000D03*
D22*
X164540000Y-153000000D03*
D23*
X162000000Y-153000000D03*
D24*
X105630000Y-115000000D03*
D19*
X113250000Y-115000000D03*
D24*
X103880000Y-81000000D03*
D19*
X111500000Y-81000000D03*
D22*
X182670000Y-130500000D03*
D23*
X185210000Y-130500000D03*
D16*
X148000000Y-119250000D03*
X145500000Y-119250000D03*
X181750000Y-94500000D03*
X184250000Y-94500000D03*
X157750000Y-80750000D03*
X157750000Y-83250000D03*
X179000000Y-80750000D03*
X179000000Y-83250000D03*
X117750000Y-93750000D03*
X117750000Y-96250000D03*
X136500000Y-81000000D03*
X136500000Y-83500000D03*
X115000000Y-81000000D03*
X115000000Y-83500000D03*
X111500000Y-70000000D03*
D15*
X111500000Y-72500000D03*
D25*
X116250000Y-130750000D03*
D26*
X116250000Y-150750000D03*
M02*
