M48
; DRILL file {KiCad (5.1.4-0-10_14)} date 2021 August 29, Sunday 18:51:43
; FORMAT={-:-/ absolute / metric / decimal}
; #@! TF.CreationDate,2021-08-29T18:51:43+09:00
; #@! TF.GenerationSoftware,Kicad,Pcbnew,(5.1.4-0-10_14)
FMAT,2
METRIC
T1C0.400
T2C0.750
T3C0.800
T4C0.900
T5C1.000
T6C1.500
T7C3.200
%
G90
G05
T1
X113.351Y-106.923
X128.52Y-97.418
X128.688Y-111.402
X131.238Y-97.701
X134.47Y-69.73
X135.026Y-98.485
X135.041Y-96.336
X136.034Y-88.528
X136.201Y-120.39
X136.371Y-132.091
X137.01Y-75.043
X137.091Y-111.73
X137.893Y-81.917
X137.913Y-120.137
X138.942Y-99.288
X139.253Y-93.657
X139.452Y-109.576
X140.005Y-103.714
X141.147Y-75.294
X141.347Y-135.958
X141.796Y-101.214
X142.245Y-126.435
X142.469Y-72.912
X143.757Y-92.605
X145.66Y-107.338
X146.283Y-117.577
X147.694Y-77.753
X149.679Y-101.676
X149.77Y-76.71
X149.804Y-77.834
X152.12Y-101.676
X152.769Y-74.871
X153.564Y-84.766
X154.049Y-74.594
X154.08Y-104.218
X154.54Y-145.118
X155.22Y-102.657
X155.312Y-93.065
X155.419Y-83.832
X155.698Y-75.824
X156.592Y-108.656
X157.946Y-90.054
X158.348Y-77.516
X159.53Y-139.934
X160.601Y-74.223
X160.969Y-85.391
X161.081Y-78.501
X161.761Y-140.663
X163.489Y-135.236
X164.159Y-107.874
X164.713Y-95.877
X165.887Y-136.778
X166.0Y-73.485
X166.211Y-93.303
X167.889Y-74.257
X168.17Y-91.338
X169.459Y-74.088
X169.46Y-111.847
X169.495Y-77.94
X173.645Y-133.406
X173.947Y-120.759
X174.019Y-92.439
X175.867Y-131.196
X177.048Y-85.778
X177.071Y-111.275
X177.134Y-87.512
X179.787Y-100.519
X180.05Y-101.605
X180.099Y-85.553
X181.207Y-83.25
X184.551Y-118.914
X187.932Y-107.874
X188.999Y-117.204
X192.51Y-116.304
T2
X103.88Y-81.0
X111.5Y-81.0
X105.63Y-115.0
X113.25Y-115.0
T3
X120.5Y-106.63
X120.5Y-114.25
X123.04Y-106.63
X123.04Y-114.25
X125.58Y-106.63
X125.58Y-114.25
X128.12Y-106.63
X157.75Y-80.75
X157.75Y-83.25
X142.04Y-81.38
X135.74Y-114.25
X154.74Y-89.0
X133.2Y-114.25
X139.5Y-81.38
X128.12Y-114.25
X130.66Y-106.63
X130.66Y-114.25
X133.2Y-106.63
X135.74Y-106.63
X117.75Y-93.75
X117.75Y-96.25
X139.5Y-89.0
X142.04Y-89.0
X144.58Y-81.38
X144.58Y-89.0
X147.12Y-81.38
X147.12Y-89.0
X149.66Y-81.38
X149.66Y-89.0
X152.2Y-81.38
X152.2Y-89.0
X154.74Y-81.38
X136.5Y-81.0
X178.41Y-130.5
X168.25Y-130.5
X136.5Y-83.5
X151.9Y-122.1
X151.9Y-132.26
X120.75Y-94.13
X120.75Y-101.75
X123.29Y-94.13
X123.29Y-101.75
X125.83Y-94.13
X125.83Y-101.75
X128.37Y-94.13
X128.37Y-101.75
X113.25Y-98.67
X113.25Y-101.21
X113.25Y-103.75
X186.75Y-121.0
X135.99Y-94.13
X135.99Y-101.75
X196.91Y-121.0
X130.91Y-94.13
X130.91Y-101.75
X133.45Y-94.13
X133.45Y-101.75
X160.75Y-81.38
X160.75Y-89.0
X163.29Y-81.38
X163.29Y-89.0
X165.83Y-81.38
X165.83Y-89.0
X168.37Y-81.38
X168.37Y-89.0
X170.91Y-81.38
X170.91Y-89.0
X173.45Y-81.38
X104.09Y-108.5
X192.16Y-81.38
X115.0Y-81.0
X115.0Y-83.5
X114.25Y-108.5
X182.0Y-81.38
X182.0Y-89.0
X184.54Y-81.38
X184.54Y-89.0
X187.08Y-81.38
X187.08Y-89.0
X189.62Y-81.38
X189.62Y-89.0
X192.16Y-89.0
X194.7Y-81.38
X194.7Y-89.0
X197.24Y-81.38
X197.24Y-89.0
X153.34Y-94.0
X104.5Y-85.0
X104.5Y-95.16
X133.24Y-81.38
X173.45Y-89.0
X175.99Y-81.38
X175.99Y-89.0
X111.5Y-70.0
X111.5Y-72.5
X179.0Y-80.75
X179.0Y-83.25
X118.0Y-81.38
X118.0Y-89.0
X120.54Y-81.38
X120.54Y-89.0
X123.08Y-81.38
X123.08Y-89.0
X125.62Y-81.38
X145.5Y-119.25
X133.24Y-89.0
X148.0Y-119.25
X144.75Y-94.0
X149.83Y-94.0
X181.75Y-94.5
X184.25Y-94.5
X128.16Y-81.38
X147.29Y-94.0
X125.62Y-89.0
X128.16Y-89.0
X130.7Y-81.38
X130.7Y-89.0
X167.75Y-94.0
X170.29Y-94.0
X172.83Y-94.0
X175.37Y-94.0
X177.91Y-94.0
X163.5Y-94.0
X141.75Y-98.51
X141.75Y-113.75
X144.29Y-98.51
X144.29Y-113.75
X146.83Y-98.51
X146.83Y-113.75
X149.37Y-98.51
X149.37Y-113.75
X151.91Y-98.51
X151.91Y-113.75
X154.45Y-98.51
X154.45Y-113.75
X156.99Y-98.51
X156.99Y-113.75
X159.53Y-98.51
X159.53Y-113.75
X162.07Y-98.51
X162.07Y-113.75
X164.61Y-98.51
X164.61Y-113.75
X167.15Y-98.51
X167.15Y-113.75
X169.69Y-98.51
X169.69Y-113.75
X172.23Y-98.51
X172.23Y-113.75
X174.77Y-98.51
X174.77Y-113.75
X177.31Y-98.51
X177.31Y-113.75
X179.85Y-98.51
X179.85Y-113.75
X182.39Y-98.51
X182.39Y-113.75
X184.93Y-98.51
X184.93Y-113.75
X187.47Y-98.51
X187.47Y-113.75
X190.01Y-98.51
X190.01Y-113.75
X117.5Y-106.25
X117.5Y-108.75
X132.5Y-122.5
X132.5Y-125.04
X132.5Y-127.58
X132.5Y-130.12
X132.5Y-132.66
X132.5Y-135.2
X132.5Y-137.74
X132.5Y-140.28
X132.5Y-142.82
X132.5Y-145.36
X132.5Y-147.9
X132.5Y-150.44
X132.5Y-152.98
X132.5Y-155.52
X147.74Y-122.5
X147.74Y-125.04
X147.74Y-145.36
X104.09Y-111.75
X114.25Y-111.75
X147.74Y-127.58
X147.74Y-130.12
X147.74Y-132.66
X147.74Y-135.2
X147.74Y-137.74
X147.74Y-140.28
X147.74Y-142.82
X147.74Y-147.9
X147.74Y-150.44
X147.74Y-152.98
X147.74Y-155.52
X120.75Y-118.0
X163.5Y-137.5
X163.5Y-147.66
X123.29Y-118.0
X125.83Y-118.0
X128.37Y-118.0
X130.91Y-118.0
X163.25Y-76.25
X165.79Y-76.25
X168.33Y-76.25
X170.87Y-76.25
X173.41Y-76.25
X108.75Y-85.09
X108.75Y-95.25
X105.75Y-98.67
X105.75Y-101.21
X105.75Y-103.75
T4
X162.5Y-153.0
X165.04Y-153.0
X182.0Y-130.5
X184.54Y-130.5
T5
X196.75Y-96.25
X196.75Y-98.79
X196.75Y-101.33
X196.75Y-103.87
X196.75Y-106.41
X196.75Y-108.95
X196.75Y-111.49
X152.9Y-148.3
X152.9Y-150.84
X152.9Y-153.38
X155.44Y-148.3
X155.44Y-150.84
X155.44Y-153.38
X120.5Y-68.46
X120.5Y-71.0
X123.04Y-68.46
X123.04Y-71.0
X125.58Y-68.46
X125.58Y-71.0
X128.12Y-68.46
X128.12Y-71.0
X130.66Y-68.46
X130.66Y-71.0
X133.2Y-68.46
X133.2Y-71.0
X135.74Y-68.46
X135.74Y-71.0
X138.28Y-68.46
X138.28Y-71.0
X140.82Y-68.46
X140.82Y-71.0
X143.36Y-68.46
X143.36Y-71.0
X145.9Y-68.46
X145.9Y-71.0
X148.44Y-68.46
X148.44Y-71.0
X150.98Y-68.46
X150.98Y-71.0
X153.52Y-68.46
X153.52Y-71.0
X156.06Y-68.46
X156.06Y-71.0
X158.6Y-68.46
X158.6Y-71.0
X161.14Y-68.46
X161.14Y-71.0
X163.68Y-68.46
X163.68Y-71.0
X166.22Y-71.0
X168.76Y-68.46
X168.76Y-71.0
X171.3Y-68.46
X171.3Y-71.0
X173.84Y-68.46
X173.84Y-71.0
X176.38Y-68.46
X176.38Y-71.0
X178.92Y-68.46
X178.92Y-71.0
X181.46Y-68.46
X181.46Y-71.0
X104.5Y-72.5
X104.5Y-75.04
X166.22Y-68.46
X196.75Y-114.03
X196.75Y-116.57
X168.9Y-136.28
X168.9Y-138.82
X168.9Y-141.36
X168.9Y-143.9
X168.9Y-146.44
X168.9Y-148.98
X168.9Y-151.52
X168.9Y-154.06
X168.9Y-156.6
X194.3Y-136.28
X194.3Y-156.6
X196.84Y-136.28
X196.84Y-156.6
T6
X116.25Y-130.75
X116.25Y-150.75
T7
X195.5Y-130.5
X106.5Y-130.5
X195.5Y-64.5
X106.5Y-64.5
T0
M30
